<?xml version="1.0" encoding="UTF-8"?>
<svg width="41px" height="27px" viewBox="0 0 41 27" version="1.1" xmlns="http://www.w3.org/2000/svg" xmlns:xlink="http://www.w3.org/1999/xlink">
    <!-- Generator: Sketch 60.1 (88133) - https://sketch.com -->
    <title>logo</title>
    <desc>Created with Sketch.</desc>
    <g id="客户管理" stroke="none" stroke-width="1" fill="none" fill-rule="evenodd">
        <g id="开户初审" transform="translate(-43.000000, -27.000000)">
            <g id="资源-1" transform="translate(43.000000, 27.000000)">
                <path d="M19.6511142,24.410625 C20.6173835,25.4322828 21.726376,26.3047032 22.9426434,27 L0,27 L0,0 L23,0 C21.7635138,0.711122717 20.6354535,1.60039728 19.6511142,2.64 C18.700912,3.62570281 17.8873834,4.73776495 17.2328855,5.945625 L5.85962513,5.945625 L5.85962513,10.535625 L15.665755,10.535625 C15.3475056,12.5018627 15.3475056,14.5075123 15.665755,16.47375 L5.85962513,16.47375 L5.85962513,21.065625 L17.2069825,21.065625 C17.8665307,22.2888951 18.6889453,23.4144387 19.6511142,24.410625 Z" id="路径" fill="#FFFFFF"></path>
                <path d="M41,27 L30.1610475,27 C26.4069312,27 23.3095499,25.72875 20.7936334,23.143125 C18.2777168,20.5575 17,17.32125 17,13.5 C17,9.67875 18.2777168,6.48 20.7936334,3.89625 C23.3095499,1.3125 26.4069312,0 30.1610475,0 L41,0 L41,27 Z M34.8071193,21.061875 L34.8071193,5.94375 L30.1610475,5.94375 C28.032774,5.94375 26.2902619,6.6375 24.9749098,8.026875 C23.6200408,9.376875 22.9614239,11.2275 22.9614239,13.50375 C22.9614239,15.78 23.6200408,17.62875 24.9749098,19.018125 C26.2921436,20.368125 28.032774,21.06375 30.1610475,21.06375 L34.8071193,21.061875 Z" id="形状" fill="#FFD100"></path>
            </g>
        </g>
    </g>
</svg>