<?xml version="1.0" encoding="UTF-8"?>
<svg width="76px" height="50px" viewBox="0 0 76 50" version="1.1" xmlns="http://www.w3.org/2000/svg" xmlns:xlink="http://www.w3.org/1999/xlink">
    <!-- Generator: Sketch 60.1 (88133) - https://sketch.com -->
    <title>logo</title>
    <desc>Created with Sketch.</desc>
    <g id="整体" stroke="none" stroke-width="1" fill="none" fill-rule="evenodd">
        <g id="注册" transform="translate(-920.000000, -204.000000)">
            <g id="资源-1" transform="translate(920.000000, 204.000000)">
                <path d="M36.3909521,45.2048611 C38.1803399,47.09682 40.2340296,48.7124134 42.4863767,50 L0,50 L0,0 L42.5925926,0 C40.3028033,1.31689392 38.2138029,2.96369866 36.3909521,4.88888889 C34.6313185,6.71426446 33.124784,8.77363879 31.912751,11.0104167 L10.8511576,11.0104167 L10.8511576,19.5104167 L29.0106573,19.5104167 C28.4213067,23.1515976 28.4213067,26.8657635 29.0106573,30.5069444 L10.8511576,30.5069444 L10.8511576,39.0104167 L31.8647825,39.0104167 C33.086168,41.2757316 34.609158,43.3600717 36.3909521,45.2048611 Z" id="路径" fill="#002169"></path>
                <path d="M75.9259259,50 L55.8537917,50 C48.9017244,50 43.1658332,47.6458333 38.5067285,42.8576389 C33.8476237,38.0694444 31.4814815,32.0763889 31.4814815,25 C31.4814815,17.9236111 33.8476237,12 38.5067285,7.21527778 C43.1658332,2.43055556 48.9017244,0 55.8537917,0 L75.9259259,0 L75.9259259,50 Z M64.4576284,39.0034722 L64.4576284,11.0069444 L55.8537917,11.0069444 C51.9125445,11.0069444 48.6856701,12.2916667 46.249833,14.8645833 C43.7408162,17.3645833 42.5211553,20.7916667 42.5211553,25.0069444 C42.5211553,29.2222222 43.7408162,32.6458333 46.249833,35.21875 C48.6891549,37.71875 51.9125445,39.0069444 55.8537917,39.0069444 L64.4576284,39.0034722 Z" id="形状" fill="#FFD100"></path>
            </g>
        </g>
    </g>
</svg>