<?xml version="1.0" encoding="UTF-8"?>
<svg width="720px" height="750px" viewBox="0 0 720 750" version="1.1" xmlns="http://www.w3.org/2000/svg" xmlns:xlink="http://www.w3.org/1999/xlink">
    <!-- Generator: Sketch 60.1 (88133) - https://sketch.com -->
    <title>plate</title>
    <desc>Created with Sketch.</desc>
    <defs>
        <linearGradient x1="24.1801653%" y1="5.03147165%" x2="90.0867885%" y2="95.8945522%" id="linearGradient-1">
            <stop stop-color="#68ABF2" offset="0%"></stop>
            <stop stop-color="#3B78E2" offset="69.8546577%"></stop>
            <stop stop-color="#3773E1" offset="85.6286951%"></stop>
            <stop stop-color="#3B79EC" offset="99.9445735%"></stop>
        </linearGradient>
    </defs>
    <g id="整体" stroke="none" stroke-width="1" fill="none" fill-rule="evenodd">
        <g id="登录-忘记密码">
            <g id="左侧插画">
                <g id="Group-4-Copy" opacity="0.850000024" transform="translate(136.737981, 260.737981) rotate(-16.000000) translate(-136.737981, -260.737981) translate(116.737981, 240.737981)">
                    <circle id="Oval-8" stroke="#CFDAE6" stroke-width="0.8" cx="20" cy="20" r="17.3913043"></circle>
                    <path d="M19.9719077,4.34782609 C14.5457738,4.34782609 9.76452935,7.1089261 6.95652174,11.3027787 M19.9719077,35.6521739 L19.9719077,35.6521739 C25.6693184,35.6521739 30.6557459,32.6080932 33.3934864,28.0576356" id="Oval-8" stroke="#DDE4EB" stroke-width="0.782608696"></path>
                    <circle id="Oval-9" stroke="#CFDAE6" stroke-width="0.869565217" fill="#F0F2F5" cx="20" cy="2.60869565" r="2.60869565"></circle>
                    <circle id="Oval-9-Copy-2" fill="#CFDAE6" cx="37.3913043" cy="20" r="2.60869565"></circle>
                    <circle id="Oval-9-Copy-3" fill="#F7E1AD" cx="2.60869565" cy="20" r="2.60869565"></circle>
                    <circle id="Oval-9-Copy" fill="#CFDAE6" cx="20" cy="37.3913043" r="2.60869565"></circle>
                </g>
                <rect id="矩形" fill="url(#linearGradient-1)" x="0" y="0" width="720" height="750"></rect>
                <g id="Group-18" opacity="0.8" transform="translate(74.901416, 642.699158) rotate(-7.000000) translate(-74.901416, -642.699158) translate(4.901416, 598.199158)">
                    <ellipse id="Oval-11" fill="#CFDAE6" opacity="0.25" cx="63.5748792" cy="32.468367" rx="21.7830479" ry="21.766008"></ellipse>
                    <ellipse id="Oval-3" fill="#CFDAE6" opacity="0.599999964" cx="5.98746479" cy="13.8668601" rx="5.2173913" ry="5.21330997"></ellipse>
                    <path d="M38.1354514,88.3520215 C43.8984227,88.3520215 48.570234,83.6838647 48.570234,77.9254015 C48.570234,72.1669383 43.8984227,67.4987816 38.1354514,67.4987816 C32.3724801,67.4987816 27.7006688,72.1669383 27.7006688,77.9254015 C27.7006688,83.6838647 32.3724801,88.3520215 38.1354514,88.3520215 Z" id="Oval-3-Copy" fill="#CFDAE6" opacity="0.45"></path>
                    <line x1="64.2775582" y1="33.1704963" x2="119.185836" y2="16.5654915" id="Path-12" stroke="#CFDAE6" stroke-width="1.73913043" stroke-linecap="round" stroke-linejoin="round"></line>
                    <line x1="42.1431708" y1="26.5002681" x2="7.71190162" y2="14.5640702" id="Path-16" stroke="#E0B4B7" stroke-width="0.702678964" opacity="0.7" stroke-linecap="round" stroke-linejoin="round" stroke-dasharray="1.405357899873153,2.108036953469981"></line>
                    <line x1="63.9262187" y1="33.521561" x2="43.6721326" y2="69.3250951" id="Path-15" stroke="#BACAD9" stroke-width="0.702678964" stroke-linecap="round" stroke-linejoin="round" stroke-dasharray="1.405357899873153,2.108036953469981"></line>
                    <g id="Group-17" transform="translate(126.850922, 13.543654) rotate(30.000000) translate(-126.850922, -13.543654) translate(117.285705, 4.381889)" fill="#CFDAE6">
                        <ellipse id="Oval-4" opacity="0.45" cx="9.13482653" cy="9.12768076" rx="9.13482653" ry="9.12768076"></ellipse>
                        <path d="M18.2696531,18.2553615 C18.2696531,13.2142826 14.1798519,9.12768076 9.13482653,9.12768076 C4.08980114,9.12768076 0,13.2142826 0,18.2553615 L18.2696531,18.2553615 Z" id="Oval-4" transform="translate(9.134827, 13.691521) scale(-1, -1) translate(-9.134827, -13.691521) "></path>
                    </g>
                </g>
                <g id="Group-14" transform="translate(252.000000, 146.500000) rotate(-5.000000) translate(-252.000000, -146.500000) translate(142.000000, 58.000000)">
                    <ellipse id="Oval-2" fill="#CFDAE6" opacity="0.25" cx="29.1176471" cy="29.1402439" rx="29.1176471" ry="29.1402439"></ellipse>
                    <ellipse id="Oval-2" fill="#CFDAE6" opacity="0.3" cx="29.1176471" cy="29.1402439" rx="21.5686275" ry="21.5853659"></ellipse>
                    <ellipse id="Oval-2-Copy" stroke="#CFDAE6" opacity="0.4" cx="179.019608" cy="138.146341" rx="23.7254902" ry="23.7439024"></ellipse>
                    <ellipse id="Oval-2" fill="#BACAD9" opacity="0.5" cx="29.1176471" cy="29.1402439" rx="10.7843137" ry="10.7926829"></ellipse>
                    <path d="M29.1176471,39.9329268 L29.1176471,18.347561 C23.1616351,18.347561 18.3333333,23.1796097 18.3333333,29.1402439 C18.3333333,35.1008781 23.1616351,39.9329268 29.1176471,39.9329268 Z" id="Oval-2" fill="#BACAD9"></path>
                    <g id="Group-9" opacity="0.45" transform="translate(172.000000, 131.000000)" fill="#E6A1A6">
                        <ellipse id="Oval-2-Copy-2" cx="7.01960784" cy="7.14634146" rx="6.47058824" ry="6.47560976"></ellipse>
                        <path d="M0.549019608,13.6219512 C4.12262681,13.6219512 7.01960784,10.722722 7.01960784,7.14634146 C7.01960784,3.56996095 4.12262681,0.670731707 0.549019608,0.670731707 L0.549019608,13.6219512 Z" id="Oval-2-Copy-2" transform="translate(3.784314, 7.146341) scale(-1, 1) translate(-3.784314, -7.146341) "></path>
                    </g>
                    <ellipse id="Oval-10" fill="#CFDAE6" cx="218.382353" cy="138.685976" rx="1.61764706" ry="1.61890244"></ellipse>
                    <ellipse id="Oval-10-Copy-2" fill="#E0B4B7" opacity="0.35" cx="179.558824" cy="175.381098" rx="1.61764706" ry="1.61890244"></ellipse>
                    <ellipse id="Oval-10-Copy" fill="#E0B4B7" opacity="0.35" cx="180.098039" cy="102.530488" rx="2.15686275" ry="2.15853659"></ellipse>
                    <line x1="28.9985381" y1="29.9671598" x2="171.151018" y2="132.876024" id="Path-11" stroke="#CFDAE6" opacity="0.8"></line>
                </g>
                <g id="Group-19备份" opacity="0.329999983" transform="translate(540.000000, 455.000000) rotate(-10.000000) translate(-540.000000, -455.000000) translate(400.000000, 336.000000)">
                    <g id="Group-17" transform="translate(141.333539, 104.502742) rotate(275.000000) translate(-141.333539, -104.502742) translate(129.333539, 92.502742)" fill="#BACAD9">
                        <circle id="Oval-4" opacity="0.45" cx="11.6666667" cy="11.6666667" r="11.6666667"></circle>
                        <path d="M23.3333333,23.3333333 C23.3333333,16.8900113 18.1099887,11.6666667 11.6666667,11.6666667 C5.22334459,11.6666667 0,16.8900113 0,23.3333333 L23.3333333,23.3333333 Z" id="Oval-4" transform="translate(11.666667, 17.500000) scale(-1, -1) translate(-11.666667, -17.500000) "></path>
                    </g>
                    <circle id="Oval-5-Copy-6" fill="#CFDAE6" cx="201.833333" cy="87.5" r="5.83333333"></circle>
                    <line x1="143.5" y1="88.8126685" x2="155.070501" y2="17.6038544" id="Path-17" stroke="#BACAD9" stroke-width="1.16666667"></line>
                    <line x1="17.5" y1="37.3333333" x2="127.466252" y2="97.6449735" id="Path-18" stroke="#BACAD9" stroke-width="1.16666667"></line>
                    <polyline id="Path-19" stroke="#CFDAE6" stroke-width="1.16666667" points="143.902597 120.302281 174.935455 231.571342 38.5 147.510847 126.366941 110.833333"></polyline>
                    <line x1="159.833333" y1="99.7453842" x2="195.416667" y2="89.25" id="Path-20" stroke="#E0B4B7" stroke-width="1.16666667" opacity="0.6"></line>
                    <line x1="205.333333" y1="82.1372105" x2="238.719406" y2="36.1666667" id="Path-24" stroke="#BACAD9" stroke-width="1.16666667"></line>
                    <line x1="266.723424" y1="132.231988" x2="207.083333" y2="90.4166667" id="Path-25" stroke="#CFDAE6" stroke-width="1.16666667"></line>
                    <circle id="Oval-5" fill="#C1D1E0" cx="156.916667" cy="8.75" r="8.75"></circle>
                    <circle id="Oval-5-Copy" fill="#D3DDE6" cx="271.25" cy="135.916667" r="8.75"></circle>
                    <circle id="Oval-5-Copy-3" fill="#C1D1E0" cx="39.0833333" cy="148.75" r="5.25"></circle>
                    <circle id="Oval-5-Copy-2" fill-opacity="0.6" fill="#D1DEED" cx="8.75" cy="33.25" r="8.75"></circle>
                    <circle id="Oval-5-Copy-4" fill-opacity="0.6" fill="#D1DEED" cx="243.833333" cy="30.3333333" r="5.83333333"></circle>
                    <circle id="Oval-5-Copy-5" fill="#E0B4B7" cx="175.583333" cy="232.75" r="5.25"></circle>
                </g>
                <g id="Browser-stats-rafiki" transform="translate(159.000000, 223.000000)" fill-rule="nonzero">
                    <g id="freepik--background-complete--inject-94">
                        <rect id="矩形" fill="#E0E0E0" x="0" y="263.324397" width="402.144772" height="1"></rect>
                        <rect id="矩形" fill="#E0E0E0" x="301.399464" y="269.436997" width="25.7050938" height="1"></rect>
                        <rect id="矩形" fill="#E0E0E0" x="330.699732" y="269.340483" width="28.8016086" height="1"></rect>
                        <rect id="矩形" fill="#E0E0E0" x="172.656836" y="272.863271" width="52.7131367" height="1"></rect>
                        <rect id="矩形" fill="#E0E0E0" x="159.466488" y="272.863271" width="8.55764075" height="1"></rect>
                        <rect id="矩形" fill="#E0E0E0" x="93.6997319" y="269.13941" width="25.5764075" height="1"></rect>
                        <rect id="矩形" fill="#E0E0E0" x="249.852547" y="269.13941" width="23.2037534" height="1"></rect>
                        <rect id="矩形" fill="#E0E0E0" x="52.2225201" y="271.495979" width="23.6461126" height="1"></rect>
                        <path d="M190.616622,227.453083 L35.3163539,227.453083 C32.7831314,227.448647 30.7319035,225.393816 30.7319035,222.86059 L30.7319035,4.55227882 C30.7539454,2.03476552 32.7987478,0.00431263249 35.3163539,1.42108547e-14 L190.616622,1.42108547e-14 C193.152986,1.42108547e-14 195.209115,2.05612929 195.209115,4.5924933 L195.209115,222.86059 C195.209115,225.396954 193.152986,227.453083 190.616622,227.453083 Z M35.3163539,0.160857909 C32.8941806,0.165294131 30.9329759,2.1301015 30.9329759,4.55227882 L30.9329759,222.86059 C30.9329759,225.282767 32.8941806,227.247575 35.3163539,227.252011 L190.616622,227.252011 C193.040101,227.247584 195.003616,225.284069 195.008043,222.86059 L195.008043,4.55227882 C195.003616,2.12879989 193.040101,0.165284365 190.616622,0.160857909 L35.3163539,0.160857909 Z" id="形状" fill="#E0E0E0"></path>
                        <path d="M364.592493,227.453083 L209.284182,227.453083 C206.749654,227.448656 204.696116,225.395118 204.691689,222.86059 L204.691689,4.55227882 C204.718108,2.03346946 206.765238,0.00426520944 209.284182,-7.10542736e-15 L364.592493,-7.10542736e-15 C367.106962,0.00871102832 369.146898,2.03789088 369.168901,4.55227882 L369.168901,222.86059 C369.168901,225.390685 367.122573,227.444221 364.592493,227.453083 Z M209.284182,0.160857909 C206.860703,0.165284365 204.897188,2.12879989 204.892761,4.55227882 L204.892761,222.86059 C204.897188,225.284069 206.860703,227.247584 209.284182,227.252011 L364.592493,227.252011 C367.015972,227.247584 368.979488,225.284069 368.983914,222.86059 L368.983914,4.55227882 C368.979488,2.12879989 367.015972,0.165284365 364.592493,0.160857909 L209.284182,0.160857909 Z" id="形状" fill="#E0E0E0"></path>
                        <path d="M122.412869,209.718502 C86.9428284,209.728503 54.9618096,188.363946 41.3909111,155.5927 C27.8200125,122.821454 35.3336582,85.101765 60.4262735,60.0321716 C60.4641722,59.9928515 60.5164344,59.9706382 60.5710456,59.9706382 C60.6256568,59.9706382 60.6779189,59.9928515 60.7158177,60.0321716 L76.849866,76.1662198 C76.889186,76.2041186 76.9113993,76.2563807 76.9113993,76.310992 C76.9113993,76.3656032 76.889186,76.4178653 76.849866,76.4557641 C56.2049491,97.086649 51.9994605,129.015391 66.5981565,154.288382 C81.1968526,179.561373 110.956054,191.870744 139.142091,184.294906 C139.190861,184.273885 139.246137,184.273885 139.294906,184.294906 C139.341299,184.321326 139.375829,184.364489 139.391421,184.41555 L145.302949,206.469169 C145.32306,206.518122 145.32306,206.573031 145.302949,206.621984 C145.273398,206.668901 145.227577,206.703266 145.174263,206.718499 C137.750785,208.708639 130.098484,209.718502 122.412869,209.718502 L122.412869,209.718502 Z M60.5710456,60.458445 C32.757501,88.4085308 27.1353567,131.534513 46.85363,165.681112 C66.5719033,199.827712 106.733903,216.515212 144.844504,206.396783 L139.037534,184.729223 C110.729252,192.228821 80.9066753,179.830763 66.2581553,154.472853 C51.6096352,129.114942 55.768503,97.0868024 76.4075067,76.310992 L60.5710456,60.458445 Z" id="形状" fill="#E0E0E0"></path>
                        <path d="M168.160858,76.5120643 C168.107162,76.5125816 168.055325,76.4924227 168.016086,76.4557641 C142.824816,51.3205639 102.041136,51.3205639 76.849866,76.4557641 C76.813378,76.4946423 76.762434,76.5166965 76.7091153,76.5166965 C76.6557966,76.5166965 76.6048525,76.4946423 76.5683646,76.4557641 L60.4262735,60.3217158 C60.3873952,60.2852279 60.365341,60.2342839 60.365341,60.1809651 C60.365341,60.1276464 60.3873952,60.0767024 60.4262735,60.0402145 C94.6801263,25.8077916 150.193868,25.8077916 184.447721,60.0402145 C184.520334,60.1200006 184.520334,60.2419297 184.447721,60.3217158 L168.30563,76.463807 C168.265175,76.4975552 168.213471,76.5147896 168.160858,76.5120643 L168.160858,76.5120643 Z M122.436997,57.2091153 C139.570992,57.1789413 156.016382,63.950913 168.160858,76.0375335 L184.013405,60.1769437 C149.948508,26.2999691 94.9174438,26.2999691 60.8525469,60.1769437 L76.7131367,76.0375335 C88.8553019,63.9464669 105.301503,57.1712687 122.436997,57.2010724 L122.436997,57.2091153 Z" id="形状" fill="#E0E0E0"></path>
                        <path d="M145.093834,206.742627 C145.059326,206.74956 145.023784,206.74956 144.989276,206.742627 C144.944767,206.715941 144.912878,206.672456 144.900804,206.621984 L138.989276,184.568365 C138.969165,184.519411 138.969165,184.464503 138.989276,184.41555 C139.01524,184.370388 139.059042,184.338266 139.10992,184.327078 C161.372504,178.380955 178.766555,161.00116 184.730928,138.743458 C190.695302,116.485757 184.322387,92.7371514 168.016086,76.4557641 C167.942355,76.3733306 167.942355,76.2486533 168.016086,76.1662198 L184.182306,60.0321716 C184.220204,59.9928515 184.272467,59.9706382 184.327078,59.9706382 C184.381689,59.9706382 184.433951,59.9928515 184.47185,60.0321716 C206.484033,82.2376287 215.040924,114.466071 206.942773,144.666046 C198.844623,174.866021 175.311023,198.489369 145.142091,206.702413 L145.093834,206.742627 Z M139.423592,184.624665 L145.238606,206.292225 C175.263848,198.160418 198.693609,174.665832 206.742427,144.618237 C214.791245,114.570642 206.242969,82.5101331 184.302949,60.458445 L168.442359,76.310992 C184.735034,92.6909484 191.081685,116.502592 185.102886,138.818689 C179.124088,161.134786 161.723046,178.584086 139.423592,184.624665 Z" id="形状" fill="#E0E0E0"></path>
                        <path d="M78.9168901,249 L78.9168901,263.324397 C103.770301,263.323001 125.523826,246.627847 131.953421,222.620508 C138.383016,198.613169 127.885281,173.280549 106.359249,160.857909 L99.2010724,173.268097 C115.107888,182.451599 122.86404,201.17358 118.111967,218.915657 C113.359894,236.657735 97.2843478,248.996586 78.9168901,249 L78.9168901,249 Z" id="路径" fill="#E0E0E0"></path>
                        <path d="M24.0080429,208.41555 C24.0124836,238.739029 48.5934107,263.319956 78.9168901,263.324397 L78.9168901,249 C56.5045565,248.99556 38.33688,230.827883 38.3324397,208.41555 L24.0080429,208.41555 Z" id="路径" fill="#F0F0F0"></path>
                        <path d="M24.0080429,208.41555 L38.3324397,208.41555 C38.3290179,193.916455 46.0623634,180.517317 58.6185071,173.267007 C71.1746508,166.016696 86.6453181,166.017112 99.2010724,173.268097 L106.359249,160.857909 C80.2761394,145.801609 46.4316354,154.882038 31.3672922,180.965147 C26.5498296,189.311764 24.011885,198.778437 24.0080429,208.41555 Z" id="路径" fill="#EBEBEB"></path>
                        <rect id="矩形" fill="#F5F5F5" x="237.603217" y="242.573727" width="17.6863271" height="20.7506702"></rect>
                        <rect id="矩形" fill="#E0E0E0" x="258.900804" y="248.831099" width="17.6863271" height="14.4932976"></rect>
                        <rect id="矩形" fill="#F0F0F0" x="280.206434" y="254.163539" width="17.6863271" height="9.15281501"></rect>
                        <rect id="矩形" fill="#F5F5F5" x="171.233244" y="248.831099" width="17.6863271" height="14.4932976"></rect>
                        <rect id="矩形" fill="#E0E0E0" x="192.530831" y="252.040214" width="17.6863271" height="11.2841823"></rect>
                        <rect id="矩形" fill="#F0F0F0" x="213.836461" y="239.010724" width="17.6863271" height="24.3136729"></rect>
                        <rect id="矩形" fill="#F5F5F5" x="303.97319" y="240.643432" width="17.6863271" height="22.6809651"></rect>
                        <rect id="矩形" fill="#E0E0E0" x="325.270777" y="248.831099" width="17.6863271" height="14.4932976"></rect>
                        <rect id="矩形" fill="#F0F0F0" x="346.576408" y="244.254692" width="17.6863271" height="19.0697051"></rect>
                        <path d="M157.552279,13.9624665 C157.561119,10.5369352 160.335863,7.76219133 163.761394,7.75335121 L357.168901,7.75335121 C360.594432,7.76219133 363.369176,10.5369352 363.378016,13.9624665 L363.378016,33.9490617 L157.552279,33.9490617 L157.552279,13.9624665 Z" id="路径" fill="#E0E0E0"></path>
                        <path d="M203.058981,20.8552279 C203.058981,22.755739 204.204256,24.4689608 205.960411,25.1955013 C207.716566,25.9220417 209.737481,25.5187057 211.080194,24.1736903 C212.422906,22.828675 212.822778,20.8070719 212.093229,19.0521643 C211.36368,17.2972568 209.648498,16.1549226 207.747989,16.15817 C205.157021,16.1626135 203.058981,18.264256 203.058981,20.8552279 L203.058981,20.8552279 Z" id="路径" fill="#F5F5F5"></path>
                        <circle id="椭圆形" fill="#F5F5F5" cx="191.115282" cy="20.8552279" r="4.69705094"></circle>
                        <circle id="椭圆形" fill="#F5F5F5" cx="174.482574" cy="20.8552279" r="4.69705094"></circle>
                        <path d="M357.168901,168.55496 L163.761394,168.55496 C160.335863,168.54612 157.561119,165.771376 157.552279,162.345845 L157.552279,33.9490617 L363.378016,33.9490617 L363.378016,162.345845 C363.369176,165.771376 360.594432,168.54612 357.168901,168.55496 L357.168901,168.55496 Z" id="路径" fill="#F5F5F5"></path>
                        <path d="M143.69437,34.7453083 C143.707598,31.3216027 146.47978,28.5494206 149.903485,28.536193 L343.310992,28.536193 C346.736523,28.5450332 349.511267,31.319777 349.520107,34.7453083 L349.520107,54.7319035 L143.69437,54.7319035 L143.69437,34.7453083 Z" id="路径" fill="#FAFAFA"></path>
                        <path d="M189.201072,41.6380697 C189.201072,44.2321793 191.304014,46.3351206 193.898123,46.3351206 C196.492233,46.3351206 198.595174,44.2321793 198.595174,41.6380697 C198.595174,39.0439601 196.492233,36.9410188 193.898123,36.9410188 C191.304014,36.9410188 189.201072,39.0439601 189.201072,41.6380697 L189.201072,41.6380697 Z" id="路径" fill="#E0E0E0"></path>
                        <path d="M172.568365,41.6380697 C172.568365,44.2321793 174.671306,46.3351206 177.265416,46.3351206 C179.859525,46.3351206 181.962466,44.2321793 181.962466,41.6380697 C181.962466,39.0439601 179.859525,36.9410188 177.265416,36.9410188 C174.671306,36.9410188 172.568365,39.0439601 172.568365,41.6380697 Z" id="路径" fill="#E0E0E0"></path>
                        <path d="M155.935657,41.6380697 C155.935657,43.5385808 157.080932,45.2518026 158.837087,45.9783431 C160.593242,46.7048836 162.614157,46.3015475 163.956869,44.9565321 C165.299581,43.6115168 165.699453,41.5899137 164.969904,39.8350061 C164.240355,38.0800986 162.525173,36.9377645 160.624665,36.9410118 C158.033697,36.9454554 155.935657,39.0470978 155.935657,41.6380697 L155.935657,41.6380697 Z" id="路径" fill="#E0E0E0"></path>
                        <path d="M343.310992,189.337802 L149.903485,189.337802 C146.477954,189.328961 143.70321,186.554218 143.69437,183.128686 L143.69437,54.7319035 L349.520107,54.7319035 L349.520107,183.128686 C349.511267,186.554218 346.736523,189.328961 343.310992,189.337802 L343.310992,189.337802 Z" id="路径" fill="#E0E0E0"></path>
                    </g>
                    <g id="freepik--Shadow--inject-94" transform="translate(45.040214, 283.697051)" fill="#2B6BD7">
                        <ellipse id="椭圆形" cx="156.032172" cy="9.84450402" rx="155.9437" ry="9.10455764"></ellipse>
                    </g>
                    <g id="freepik--Graphics--inject-94" transform="translate(48.257373, 20.107239)">
                        <path d="M297.096515,0 L8.54155496,0 C4.28012687,0.0131909296 0.826349173,3.45978822 0.804289544,7.72117962 L0.804289544,200.316354 C0.817557529,204.582716 4.27518169,208.036746 8.54155496,208.045576 L297.096515,208.045576 C301.359747,208.03233 304.81249,204.579587 304.825737,200.316354 L304.825737,7.72117962 C304.80371,3.4629121 301.354803,0.0175941135 297.096515,0 Z" id="路径" fill="#407BFF"></path>
                        <path d="M297.096515,0 L8.54155496,0 C4.28012687,0.0131909296 0.826349173,3.45978822 0.804289544,7.72117962 L0.804289544,200.316354 C0.817557529,204.582716 4.27518169,208.036746 8.54155496,208.045576 L297.096515,208.045576 C301.359747,208.03233 304.81249,204.579587 304.825737,200.316354 L304.825737,7.72117962 C304.80371,3.4629121 301.354803,0.0175941135 297.096515,0 Z" id="路径" fill="#F5F5F5" opacity="0.3"></path>
                        <path d="M59.6380697,15.1126005 L15.924933,15.1126005 C14.0796097,15.1863987 12.3419828,14.2439951 11.3973569,12.6570654 C10.452731,11.0701357 10.452731,9.09340313 11.3973569,7.50647344 C12.3419828,5.91954375 14.0796097,4.97714017 15.924933,5.05093834 L59.6380697,5.05093834 C61.4833929,4.97714017 63.2210199,5.91954375 64.1656458,7.50647344 C65.1102717,9.09340313 65.1102717,11.0701357 64.1656458,12.6570654 C63.2210199,14.2439951 61.4833929,15.1863987 59.6380697,15.1126005 L59.6380697,15.1126005 Z M15.924933,5.85522788 C14.3709525,5.78742276 12.9050989,6.57783894 12.1078724,7.91345964 C11.3106459,9.24908034 11.3106459,10.9144585 12.1078724,12.2500792 C12.9050989,13.5856999 14.3709525,14.3761161 15.924933,14.308311 L59.6380697,14.308311 C61.1920502,14.3761161 62.6579038,13.5856999 63.4551303,12.2500792 C64.2523568,10.9144585 64.2523568,9.24908034 63.4551303,7.91345964 C62.6579038,6.57783894 61.1920502,5.78742276 59.6380697,5.85522788 L15.924933,5.85522788 Z" id="形状" fill="#FAFAFA"></path>
                        <path d="M80.8069705,15.1126005 L75.6032172,15.1126005 C72.9029737,15.0046124 70.7695576,12.7841714 70.7695576,10.0817694 C70.7695576,7.37936747 72.9029737,5.15892647 75.6032172,5.05093834 L80.8310992,5.05093834 C83.5313427,5.15892647 85.6647587,7.37936747 85.6647587,10.0817694 C85.6647587,12.7841714 83.5313427,15.0046124 80.8310992,15.1126005 L80.8069705,15.1126005 Z M75.6032172,5.85522788 C73.3406159,5.95395238 71.5570716,7.81701532 71.5570716,10.0817694 C71.5570716,12.3465236 73.3406159,14.2095865 75.6032172,14.308311 L80.8310992,14.308311 C83.0937005,14.2095865 84.8772447,12.3465236 84.8772447,10.0817694 C84.8772447,7.81701532 83.0937005,5.95395238 80.8310992,5.85522788 L75.6032172,5.85522788 Z" id="形状" fill="#FAFAFA"></path>
                        <rect id="矩形" fill="#407BFF" x="0.804289544" y="19.9865952" width="304.021448" height="173.38874"></rect>
                        <rect id="矩形" fill="#F5F5F5" opacity="0.8" x="0.804289544" y="19.9865952" width="304.021448" height="173.38874"></rect>
                        <path d="M57.2975871,167.445182 C53.9193852,167.451137 50.5436958,167.260466 47.1876676,166.873995 C27.8847185,164.662198 10.9142091,155.461126 0.643431635,141.635389 C0.576802108,141.546549 0.594806743,141.420517 0.683646113,141.353887 C0.772485483,141.287258 0.898517926,141.305263 0.965147453,141.394102 C11.1635389,155.131367 28.0294906,164.276139 47.227882,166.479893 C62.5817694,168.241287 79.0616622,165.932976 99.0884718,159.241287 C105.008043,157.254692 111,154.994638 116.782842,152.806971 C135.337802,145.785523 154.520107,138.522788 174.691689,139.319035 C184.343164,139.697051 193.994638,141.941019 203.324397,144.144772 C207.924933,145.214477 212.678284,146.316354 217.375335,147.184987 C235.142091,150.474531 248.798928,149.123324 259.126005,143.058981 C262.022217,141.268908 264.792744,139.283051 267.418231,137.115282 C271.077748,134.243968 274.849866,131.268097 279.184987,129.410188 C287.610445,125.958557 297.179351,126.750982 304.922252,131.541555 C304.96827,131.568196 305.00126,131.612639 305.013439,131.664398 C305.025617,131.716158 305.018571,131.770648 304.986595,131.815013 C304.959955,131.861031 304.915511,131.894021 304.863752,131.9062 C304.811992,131.918379 304.757502,131.908667 304.713137,131.879357 C297.075973,127.156373 287.639039,126.375942 279.329759,129.780161 C275.050938,131.613941 271.286863,134.605898 267.659517,137.436997 C265.0181,139.61214 262.234432,141.608535 259.327078,143.412869 C248.911528,149.525469 235.158177,150.884718 217.294906,147.579088 C212.589812,146.710456 207.828418,145.600536 203.227882,144.530831 C193.914209,142.367292 184.27882,140.123324 174.66756,139.753351 C154.608579,138.949062 135.450402,146.187668 116.927614,153.217158 C111.128686,155.412869 105.128686,157.680965 99.233244,159.651475 C83.4450402,164.879357 69.8605898,167.445182 57.2975871,167.445182 Z" id="路径" fill="#FAFAFA" opacity="0.9"></path>
                        <path d="M254.710456,99.0482574 C240.353887,99.0482574 224.879357,95.5013405 206.404826,87.997319 C200.477212,85.5844504 194.477212,82.8981233 188.710456,80.2922252 C170.211796,71.9597855 151.029491,63.3458445 130.970509,62.7024129 C121.319035,62.3967828 111.731903,63.9490617 102.418231,65.4530831 C97.8096515,66.1930295 93.0482574,66.9651475 88.3431635,67.4959786 C70.4798928,69.5308311 56.7345845,67.1823056 46.3190349,60.3297587 C43.4067807,58.3188462 40.6238133,56.1268564 37.9865952,53.766756 C34.3190349,50.6702413 30.5630027,47.4530831 26.2761394,45.2734584 C18.2667725,41.2685602 8.8167023,41.3763898 0.90080429,45.5630027 C0.80266747,45.6120915 0.68327904,45.5769772 0.627345845,45.4825737 C0.602562045,45.4356724 0.595638426,45.3804518 0.610732901,45.3291306 C0.625827376,45.2778093 0.660750471,45.2346187 0.707774799,45.2091153 C8.73891456,40.9732449 18.3181061,40.8624855 26.4450402,44.9115282 C30.772118,47.075067 34.5522788,50.3163539 38.2037534,53.461126 C40.8271118,55.8110302 43.5967359,57.9923442 46.4959786,59.9919571 C56.8230563,66.7962466 70.4879357,69.1206434 88.2546917,67.0938338 C92.9517426,66.5630027 97.7050938,65.7989276 102.30563,65.0509383 C111.635389,63.5469169 121.286863,61.9946381 130.930295,62.3002681 C151.077748,62.9517426 170.268097,71.5737265 188.839142,79.922252 C194.63807,82.5281501 200.630027,85.2225201 206.533512,87.6273458 C226.560322,95.7587131 243.024129,99.233244 258.394102,98.5656836 C277.58445,97.7613941 294.442359,89.7989276 304.640751,76.7935657 C304.677239,76.7546874 304.728183,76.7326333 304.781501,76.7326333 C304.83482,76.7326333 304.885764,76.7546874 304.922252,76.7935657 C304.964914,76.8255623 304.993118,76.8731959 305.002682,76.9259877 C305.008202,76.9787794 304.994463,77.0324049 304.962466,77.075067 C294.691689,90.1689008 277.72118,98.1635389 258.410188,99 C257.203753,99.0241287 255.957105,99.0482574 254.710456,99.0482574 Z" id="路径" fill="#407BFF" style="mix-blend-mode: multiply;"></path>
                        <path d="M254.710456,99.0482574 C240.353887,99.0482574 224.879357,95.5013405 206.404826,87.997319 C200.477212,85.5844504 194.477212,82.8981233 188.710456,80.2922252 C170.211796,71.9597855 151.029491,63.3458445 130.970509,62.7024129 C121.319035,62.3967828 111.731903,63.9490617 102.418231,65.4530831 C97.8096515,66.1930295 93.0482574,66.9651475 88.3431635,67.4959786 C70.4798928,69.5308311 56.7345845,67.1823056 46.3190349,60.3297587 C43.4067807,58.3188462 40.6238133,56.1268564 37.9865952,53.766756 C34.3190349,50.6702413 30.5630027,47.4530831 26.2761394,45.2734584 C18.2667725,41.2685602 8.8167023,41.3763898 0.90080429,45.5630027 C0.80266747,45.6120915 0.68327904,45.5769772 0.627345845,45.4825737 C0.602562045,45.4356724 0.595638426,45.3804518 0.610732901,45.3291306 C0.625827376,45.2778093 0.660750471,45.2346187 0.707774799,45.2091153 C8.73891456,40.9732449 18.3181061,40.8624855 26.4450402,44.9115282 C30.772118,47.075067 34.5522788,50.3163539 38.2037534,53.461126 C40.8271118,55.8110302 43.5967359,57.9923442 46.4959786,59.9919571 C56.8230563,66.7962466 70.4879357,69.1206434 88.2546917,67.0938338 C92.9517426,66.5630027 97.7050938,65.7989276 102.30563,65.0509383 C111.635389,63.5469169 121.286863,61.9946381 130.930295,62.3002681 C151.077748,62.9517426 170.268097,71.5737265 188.839142,79.922252 C194.63807,82.5281501 200.630027,85.2225201 206.533512,87.6273458 C226.560322,95.7587131 243.024129,99.233244 258.394102,98.5656836 C277.58445,97.7613941 294.442359,89.7989276 304.640751,76.7935657 C304.677239,76.7546874 304.728183,76.7326333 304.781501,76.7326333 C304.83482,76.7326333 304.885764,76.7546874 304.922252,76.7935657 C304.964914,76.8255623 304.993118,76.8731959 305.002682,76.9259877 C305.008202,76.9787794 304.994463,77.0324049 304.962466,77.075067 C294.691689,90.1689008 277.72118,98.1635389 258.410188,99 C257.203753,99.0241287 255.957105,99.0482574 254.710456,99.0482574 Z" id="路径" fill="#F5F5F5" opacity="0.7"></path>
                        <path d="M281.075067,187.954424 L24.5549598,187.954424 C14.4416666,187.941131 6.24653637,179.746001 6.23324397,169.632708 L6.23324397,43.7372654 C6.24653637,33.6239722 14.4416666,25.428842 24.5549598,25.4155496 L281.075067,25.4155496 C291.18836,25.428842 299.38349,33.6239722 299.396783,43.7372654 L299.396783,169.632708 C299.38349,179.746001 291.18836,187.941131 281.075067,187.954424 L281.075067,187.954424 Z M24.5549598,25.8176944 C14.6637648,25.830986 6.6486804,33.8460704 6.63538874,43.7372654 L6.63538874,169.632708 C6.6486804,179.523903 14.6637648,187.538987 24.5549598,187.552279 L281.075067,187.552279 C290.966262,187.538987 298.981346,179.523903 298.994638,169.632708 L298.994638,43.7372654 C298.981346,33.8460704 290.966262,25.830986 281.075067,25.8176944 L24.5549598,25.8176944 Z" id="形状" fill="#FAFAFA"></path>
                        <rect id="矩形" fill="#FAFAFA" x="23.1876676" y="126.683646" width="14.9356568" height="66.6997319"></rect>
                        <rect id="矩形" fill="#FAFAFA" x="45.4021448" y="113.067024" width="14.9356568" height="80.308311"></rect>
                        <rect id="矩形" fill="#FAFAFA" x="67.6085791" y="99.6997319" width="14.9356568" height="93.6836461"></rect>
                        <rect id="矩形" fill="#FAFAFA" x="89.8230563" y="83.308311" width="14.9356568" height="110.067024"></rect>
                        <rect id="矩形" fill="#FAFAFA" x="112.029491" y="106.680965" width="14.9356568" height="86.69437"></rect>
                        <rect id="矩形" fill="#407BFF" x="134.243968" y="74.1957105" width="14.9356568" height="119.187668"></rect>
                        <rect id="矩形" fill="#FFFFFF" opacity="0.2" x="134.243968" y="74.1957105" width="14.9356568" height="119.187668"></rect>
                        <path d="M143.887399,80.3485255 C141.942291,85.7017392 136.792984,89.2123359 131.099196,89.0670241 L131.099196,69.2815013 L142.986595,69.2815013 C144.896282,72.6596015 145.225645,76.7060587 143.887399,80.3485255 Z" id="路径" fill="#407BFF"></path>
                        <path d="M143.887399,80.3485255 C141.942291,85.7017392 136.792984,89.2123359 131.099196,89.0670241 L131.099196,69.2815013 L142.986595,69.2815013 C144.896282,72.6596015 145.225645,76.7060587 143.887399,80.3485255 Z" id="路径" fill="#FFFFFF" opacity="0.2"></path>
                        <rect id="矩形" fill="#FAFAFA" x="156.450402" y="114.764075" width="14.9356568" height="78.6112601"></rect>
                        <rect id="矩形" fill="#FAFAFA" x="178.664879" y="88.3994638" width="14.9356568" height="104.983914"></rect>
                        <rect id="矩形" fill="#407BFF" x="200.871314" y="167.115282" width="14.9356568" height="26.2600536"></rect>
                        <rect id="矩形" fill="#000000" opacity="0.3" x="200.871314" y="167.115282" width="14.9356568" height="26.2600536"></rect>
                        <rect id="矩形" fill="#FAFAFA" x="223.085791" y="81.8042895" width="14.9356568" height="111.579088"></rect>
                        <rect id="矩形" fill="#407BFF" x="245.292225" y="50.8713137" width="14.9356568" height="142.512064"></rect>
                        <rect id="矩形" fill="#FFFFFF" opacity="0.2" x="245.292225" y="50.8713137" width="14.9356568" height="142.512064"></rect>
                        <rect id="矩形" fill="#FAFAFA" x="267.506702" y="116.903485" width="14.9356568" height="76.4718499"></rect>
                    </g>
                    <g id="freepik--Character--inject-94" transform="translate(103.753351, 57.104558)">
                        <path d="M88.3914209,43.3512064 C86.4463127,48.7044202 81.2970057,52.2150169 75.6032172,52.0697051 C74.1690811,52.0339853 72.7506255,51.7622505 71.4048257,51.2654155 C64.5229469,48.7576839 60.9768363,41.1460486 63.4842225,34.2640438 C65.9916086,27.382039 73.603066,23.8355464 80.4851966,26.3425871 C87.3673272,28.8496278 90.9142019,36.4609071 88.4075067,43.3431635 L88.3914209,43.3512064 Z" id="路径" fill="#FAFAFA" opacity="0.3"></path>
                        <path d="M86.3404826,30.5630027 L62.9356568,41.4691689 C62.8954424,41.2680965 62.8552279,41.075067 62.8230563,40.8739946 C62.6164735,39.5855993 62.60292,38.2736214 62.7828418,36.9812332 L62.7828418,36.9812332 L82.9946381,27.5630027 C84.2738876,28.3634904 85.4057123,29.3783236 86.3404826,30.5630027 Z" id="路径" fill="#FAFAFA" opacity="0.4"></path>
                        <path d="M89.1957105,38.5495979 L67.1903485,48.7962466 C65.6604232,47.4612637 64.4602086,45.7903226 63.6836461,43.9142091 L87.7077748,32.7184987 C88.6442724,34.5224074 89.1533712,36.5175245 89.1957105,38.5495979 L89.1957105,38.5495979 Z" id="路径" fill="#FAFAFA" opacity="0.4"></path>
                        <path d="M81.1608579,24.4343164 C73.2316895,21.5607115 64.4736192,25.6540846 61.5921489,33.580398 C58.7106785,41.5067115 62.7953602,50.2688387 70.7188109,53.1581717 C78.6422616,56.0475048 87.4084371,51.9715185 90.30563,44.0509383 C91.7005952,40.2372699 91.5202936,36.0252064 89.8045328,32.3446957 C88.0887719,28.6641849 84.9786615,25.8179241 81.1608579,24.4343164 L81.1608579,24.4343164 Z M71.7989276,50.1715818 C65.5418973,47.8934758 62.3137586,40.9767184 64.5864058,34.7177034 C66.8590529,28.4586883 73.7729917,25.2245173 80.0339869,27.4917039 C86.294982,29.7588905 89.5351827,36.6700055 87.2734584,42.9329759 C86.1816055,45.9446249 83.9367957,48.3983735 81.033949,49.7532364 C78.1311023,51.1080994 74.8085869,51.2528217 71.7989276,50.155496 L71.7989276,50.1715818 Z" id="形状" fill="#407BFF"></path>
                        <path d="M81.1608579,24.4343164 C73.2316895,21.5607115 64.4736192,25.6540846 61.5921489,33.580398 C58.7106785,41.5067115 62.7953602,50.2688387 70.7188109,53.1581717 C78.6422616,56.0475048 87.4084371,51.9715185 90.30563,44.0509383 C91.7005952,40.2372699 91.5202936,36.0252064 89.8045328,32.3446957 C88.0887719,28.6641849 84.9786615,25.8179241 81.1608579,24.4343164 L81.1608579,24.4343164 Z M71.7989276,50.1715818 C65.5418973,47.8934758 62.3137586,40.9767184 64.5864058,34.7177034 C66.8590529,28.4586883 73.7729917,25.2245173 80.0339869,27.4917039 C86.294982,29.7588905 89.5351827,36.6700055 87.2734584,42.9329759 C86.1816055,45.9446249 83.9367957,48.3983735 81.033949,49.7532364 C78.1311023,51.1080994 74.8085869,51.2528217 71.7989276,50.155496 L71.7989276,50.1715818 Z" id="形状" fill="#000000" opacity="0.3"></path>
                        <path d="M72.7479893,51.997319 C71.9839142,55.689008 70.922252,59.2841823 69.8203753,62.8552279 C69.233244,64.6327078 68.6863271,66.4182306 68.0509383,68.1715818 L67.1179625,70.8176944 C66.8212499,71.8398536 66.0663575,72.6660745 65.075067,73.0536193 C63.9942554,73.514726 62.7411343,73.0571256 62.2117962,72.0080429 C61.7006024,71.0749598 61.6530319,69.9570514 62.0831099,68.9839142 L63.0723861,66.3619303 C63.7158177,64.6085791 64.4477212,62.8873995 65.1394102,61.150134 C66.5871314,57.6997319 68.0911528,54.2734584 69.8847185,50.9517426 C70.2391784,50.2636317 71.0502284,49.9467193 71.7773079,50.2122259 C72.5043875,50.4777325 72.9203631,51.2427161 72.7479893,51.997319 L72.7479893,51.997319 Z" id="路径" fill="#407BFF"></path>
                        <path d="M72.7479893,51.997319 C71.9839142,55.689008 70.922252,59.2841823 69.8203753,62.8552279 C69.233244,64.6327078 68.6863271,66.4182306 68.0509383,68.1715818 L67.1179625,70.8176944 C66.8212499,71.8398536 66.0663575,72.6660745 65.075067,73.0536193 C63.9942554,73.514726 62.7411343,73.0571256 62.2117962,72.0080429 C61.7006024,71.0749598 61.6530319,69.9570514 62.0831099,68.9839142 L63.0723861,66.3619303 C63.7158177,64.6085791 64.4477212,62.8873995 65.1394102,61.150134 C66.5871314,57.6997319 68.0911528,54.2734584 69.8847185,50.9517426 C70.2391784,50.2636317 71.0502284,49.9467193 71.7773079,50.2122259 C72.5043875,50.4777325 72.9203631,51.2427161 72.7479893,51.997319 L72.7479893,51.997319 Z" id="路径" fill="#000000" opacity="0.3"></path>
                        <path d="M13.3029491,48.4825737 C13.1581769,48.6836461 12.924933,49.0375335 12.7399464,49.3270777 L12.1367292,50.2680965 C11.7426273,50.9034853 11.3324397,51.5549598 11.0107239,52.2225201 C10.287308,53.5268301 9.63488278,54.8692688 9.05630027,56.2439678 C7.91780129,58.9112908 7.21188864,61.7430866 6.96514745,64.6327078 L6.96514745,65.1715818 L6.96514745,65.2841823 C6.96514745,65.3565684 7.10991957,65.5898123 7.52010724,65.8230563 C8.67985018,66.3770451 9.93085717,66.7150077 11.2117962,66.8203753 C14.3025484,67.1214579 17.4138851,67.1483725 20.5093834,66.9008043 L21.2091153,70.2386059 C17.8942779,71.3128221 14.4450979,71.916564 10.9624665,72.0321716 C10.0245403,72.0397378 9.08705748,71.9887 8.15549598,71.8793566 C7.09648145,71.7547463 6.05982525,71.4840789 5.07506702,71.075067 C3.7832298,70.5621991 2.66636287,69.6882508 1.85790885,68.5576408 C1.42013526,67.9018813 1.10661599,67.1712451 0.932975871,66.4021448 C0.799714133,65.7757518 0.73765828,65.1363067 0.747989276,64.4959786 C0.737873725,60.8223662 1.42001375,57.1797384 2.75871314,53.7587131 C3.37570502,52.08857 4.10664656,50.4627625 4.9463807,48.8927614 C5.36461126,48.0884718 5.8150134,47.3485255 6.28150134,46.5924933 C6.51474531,46.2144772 6.75603217,45.8364611 7.01340483,45.4664879 C7.27077748,45.0965147 7.50402145,44.7506702 7.81769437,44.3002681 L13.3029491,48.4825737 Z" id="路径" fill="#E4897B"></path>
                        <path d="M10.8981233,37.2949062 C8.1152815,37.9705094 1.53619303,48.9410188 1.53619303,48.9410188 L16.2788204,55.0455764 C16.2788204,55.0455764 18.9410188,46.6970509 17.2680965,43.3592493 C15.5308311,39.8847185 14.6541555,36.3699732 10.8981233,37.2949062 Z" id="路径" fill="#407BFF"></path>
                        <path d="M10.8981233,37.2949062 C8.1152815,37.9705094 1.53619303,48.9410188 1.53619303,48.9410188 L16.2788204,55.0455764 C16.2788204,55.0455764 18.9410188,46.6970509 17.2680965,43.3592493 C15.5308311,39.8847185 14.6541555,36.3699732 10.8981233,37.2949062 Z" id="路径" fill="#000000" opacity="0.2"></path>
                        <path d="M21.1286863,66.5549598 L27.8847185,65.8391421 L24.1286863,71.5174263 C24.1286863,71.5174263 19.8176944,71.1233244 18.7158177,68.541555 L21.1286863,66.5549598 Z" id="路径" fill="#E4897B"></path>
                        <polygon id="路径" fill="#E4897B" points="32.7024129 68.847185 27.5147453 74.4852547 24.0884718 71.5174263 27.8847185 65.8391421"></polygon>
                        <path d="M12.2412869,230.203753 C11.6390949,230.188671 11.0403597,230.107761 10.4557641,229.962466 C10.395498,229.94655 10.3509392,229.895626 10.3431635,229.83378 C10.3314381,229.772204 10.3565497,229.709425 10.4075067,229.672922 C10.6407507,229.520107 12.6675603,228.201072 13.463807,228.55496 C13.6436053,228.637085 13.7661494,228.808647 13.7855228,229.005362 C13.8476118,229.316179 13.7476525,229.637261 13.5201072,229.857909 C13.1476801,230.119802 12.6949485,230.242239 12.2412869,230.203753 Z M10.9142091,229.737265 C12.0884718,229.970509 12.9651475,229.930295 13.3270777,229.616622 C13.4786139,229.471882 13.5401322,229.256568 13.4879357,229.053619 C13.4887498,228.962705 13.4348163,228.880218 13.3512064,228.844504 C12.9168901,228.66756 11.7426273,229.22252 10.9142091,229.737265 L10.9142091,229.737265 Z" id="形状" fill="#407BFF"></path>
                        <path d="M10.4959786,229.970509 C10.4088753,229.966452 10.3391784,229.896755 10.3351206,229.809651 C10.3351206,229.729223 10.3351206,227.790885 11.0589812,227.13941 C11.2383478,226.966216 11.4878971,226.886004 11.7345845,226.922252 C11.998446,226.925178 12.2237586,227.113499 12.2734584,227.372654 C12.4262735,228.128686 11.2117962,229.58445 10.5764075,229.946381 C10.5523769,229.961776 10.5245153,229.970135 10.4959786,229.970509 L10.4959786,229.970509 Z M11.6219839,227.235925 C11.4920825,227.236494 11.3677089,227.288557 11.2761394,227.380697 C10.8571608,228.00497 10.643472,228.744446 10.6648794,229.495979 C11.3002681,228.989276 12.0563003,227.887399 11.9597855,227.436997 C11.9597855,227.356568 11.9034853,227.268097 11.69437,227.243968 L11.6219839,227.235925 Z" id="形状" fill="#407BFF"></path>
                        <path d="M42.8847185,230.203753 C42.171066,230.188252 41.4603286,230.107486 40.7613941,229.962466 C40.6966728,229.951851 40.6471732,229.899051 40.6407507,229.83378 C40.6259415,229.76573 40.6590153,229.696275 40.7211796,229.664879 C41.0268097,229.512064 43.6970509,228.136729 44.5254692,228.587131 C44.6850524,228.671453 44.7888133,228.833198 44.7989276,229.013405 C44.8488898,229.312007 44.7426943,229.615423 44.5174263,229.817694 C44.0323274,230.126887 43.4569226,230.262943 42.8847185,230.203753 Z M41.2761394,229.737265 C42.772118,229.986595 43.8820375,229.922252 44.2922252,229.552279 C44.4283358,229.421067 44.4940122,229.232994 44.4691689,229.045576 C44.467805,228.970141 44.4243263,228.901817 44.3565684,228.868633 C43.922252,228.627346 42.3941019,229.22252 41.2922252,229.737265 L41.2761394,229.737265 Z" id="形状" fill="#407BFF"></path>
                        <path d="M40.7935657,229.970509 C40.7651391,229.981713 40.7335204,229.981713 40.7050938,229.970509 C40.6579078,229.937709 40.6306367,229.883167 40.6327078,229.825737 C40.6327078,229.753351 40.7855228,227.935657 41.6300268,227.235925 C41.8727743,227.022823 42.1934872,226.920778 42.5147453,226.954424 C42.9571046,227.002681 43.0857909,227.227882 43.1099196,227.412869 C43.2386059,228.217158 41.6782842,229.616622 40.8579088,229.986595 L40.7935657,229.970509 Z M42.4021448,227.235925 C42.1980937,227.23697 42.0011852,227.311168 41.847185,227.44504 C41.3749988,228.042326 41.0946143,228.768522 41.0428954,229.52815 C41.847185,229.029491 42.9329759,227.919571 42.8525469,227.428954 C42.8525469,227.428954 42.8525469,227.268097 42.538874,227.243968 L42.4021448,227.235925 Z" id="形状" fill="#407BFF"></path>
                        <path d="M22.6487936,21 C23.4530831,25.0214477 25.2868633,33.0643432 22.5040214,35.7587131 C22.5040214,35.7587131 23.6219839,39.7801609 31.0536193,39.7801609 C39.2171582,39.7801609 34.9302949,35.7587131 34.9302949,35.7587131 C30.4664879,34.6970509 30.5549598,31.3914209 31.3190349,28.2868633 L22.6487936,21 Z" id="路径" fill="#E4897B"></path>
                        <path d="M39.5067024,13.8820375 C39.4194037,13.8812149 39.3358136,13.8466258 39.2734584,13.7855228 C39.1508388,13.6604257 39.1508388,13.4602178 39.2734584,13.3351206 C40.0088328,12.6231917 41.0390882,12.3036632 42.0482574,12.4745308 C42.1311476,12.4935013 42.2027842,12.5453117 42.2467562,12.618093 C42.2907283,12.6908744 42.3032675,12.7783895 42.2815013,12.8605898 C42.2642168,12.9431897 42.2143789,13.0153409 42.1432456,13.0607451 C42.0721122,13.1061494 41.9856844,13.1209763 41.9034853,13.1018767 C41.1025752,12.9605321 40.2830634,13.2186933 39.7077748,13.7935657 C39.6554983,13.8490704 39.5829423,13.880995 39.5067024,13.8820375 L39.5067024,13.8820375 Z" id="路径" fill="#263238"></path>
                        <path d="M40.4879357,17.9919571 C40.6796166,19.3131688 41.0531293,20.601517 41.5978552,21.8203753 C40.959465,22.0835118 40.2369655,22.0481241 39.6273458,21.7238606 L40.4879357,17.9919571 Z" id="路径" fill="#DE5753"></path>
                        <path d="M40.2144772,16.9705094 C40.0938338,17.5013405 40.2788204,18 40.6246649,18.080429 C40.9705094,18.1608579 41.3485255,17.7989276 41.4289544,17.2761394 C41.5093834,16.7533512 41.3726542,16.2546917 41.0268097,16.1662198 C40.6809651,16.077748 40.3431635,16.4396783 40.2144772,16.9705094 Z" id="路径" fill="#263238"></path>
                        <path d="M40.9142091,16.150134 L42.2654155,16.0857909 C42.2654155,16.0857909 41.3887399,16.9302949 40.9142091,16.150134 Z" id="路径" fill="#263238"></path>
                        <polygon id="路径" fill="#E4897B" points="33.386059 229.809651 40.1260054 229.809651 40.4718499 214.206434 33.7319035 214.206434"></polygon>
                        <polygon id="路径" fill="#E4897B" points="2.77479893 229.809651 9.51474531 229.809651 11.5817694 214.206434 4.84182306 214.206434"></polygon>
                        <path d="M9.92493298,229.029491 L2.35656836,229.029491 C2.08815573,229.023328 1.85871063,229.221485 1.82573727,229.487936 L1.02144772,235.479893 C0.994436646,235.787063 1.09737221,236.091497 1.30525058,236.319246 C1.51312895,236.546995 1.80692792,236.677219 2.1152815,236.678284 C4.75335121,236.630027 6.02412869,236.477212 9.3538874,236.477212 C11.3967828,236.477212 14.3887399,236.686327 17.2198391,236.686327 C20.0509383,236.686327 20.1796247,233.887399 18.997319,233.63807 C13.7131367,232.504021 12.8686327,230.935657 11.0831099,229.439678 C10.7570413,229.171463 10.3471295,229.026286 9.92493298,229.029491 L9.92493298,229.029491 Z" id="路径" fill="#263238"></path>
                        <path d="M40.3512064,229.029456 L32.7828418,229.029456 C32.5140043,229.026482 32.2840785,229.22209 32.2439678,229.487936 L31.4396783,235.479893 C31.407672,235.786817 31.5077753,236.092862 31.7149723,236.321546 C31.9221694,236.55023 32.2168849,236.679948 32.5254692,236.678284 C35.1635389,236.630027 36.4343164,236.477212 39.7640751,236.477212 C41.8150134,236.477212 46.0536193,236.686327 48.8766756,236.686327 C51.6997319,236.686327 51.8364611,233.887399 50.6621984,233.63807 C45.3699732,232.504021 43.2868633,230.935657 41.4932976,229.439678 C41.1725072,229.173204 40.7682347,229.028008 40.3512064,229.029456 L40.3512064,229.029456 Z" id="路径" fill="#263238"></path>
                        <polygon id="路径" fill="#CE6F64" points="40.4718499 214.214477 40.2949062 222.24933 33.5549598 222.24933 33.7319035 214.214477"></polygon>
                        <polygon id="路径" fill="#CE6F64" points="4.84182306 214.214477 11.5817694 214.214477 10.5120643 222.24933 3.77211796 222.24933"></polygon>
                        <path d="M46.3270777,37.4879357 C46.3270777,37.4879357 49.5442359,38.6219839 43.3753351,78.1447721 L16.0294906,78.1447721 C16.4155496,67.0134048 16.383378,60.1447721 10.9142091,37.2949062 C14.7407853,36.5039349 18.6195201,35.9905334 22.5201072,35.7587131 C26.6571269,35.4688395 30.8093611,35.4688395 34.9463807,35.7587131 C40.2707775,36.2493298 46.3270777,37.4879357 46.3270777,37.4879357 Z" id="路径" fill="#407BFF"></path>
                        <path d="M46.3270777,37.4879357 C46.3270777,37.4879357 49.5442359,38.6219839 43.3753351,78.1447721 L16.0294906,78.1447721 C16.4155496,67.0134048 16.383378,60.1447721 10.9142091,37.2949062 C14.7407853,36.5039349 18.6195201,35.9905334 22.5201072,35.7587131 C26.6571269,35.4688395 30.8093611,35.4688395 34.9463807,35.7587131 C40.2707775,36.2493298 46.3270777,37.4879357 46.3270777,37.4879357 Z" id="路径" fill="#000000" opacity="0.2"></path>
                        <path d="M48.538874,44.9839142 C49.1260054,48.4343164 49.8900804,52.0455764 50.7506702,55.4879357 C51.1930295,57.2171582 51.691689,58.922252 52.2466488,60.5790885 C52.7649401,62.2004979 53.3965223,63.7834847 54.1367292,65.3163539 C54.472465,66.0230649 54.8567633,66.7056646 55.2868633,67.3592493 C55.4879357,67.6729223 55.6970509,67.9383378 55.9061662,68.2117962 C56.0292508,68.3738118 56.1665225,68.5245415 56.3163539,68.6621984 C56.5102233,68.8531563 56.7683102,68.964994 57.0402145,68.9758713 C57.5768608,68.967781 58.1047459,68.8385591 58.5844504,68.5978552 C60.0087937,67.8849408 61.3204394,66.9662467 62.4772118,65.8713137 C63.1045576,65.2922252 63.7399464,64.6809651 64.3592493,64.0536193 C64.9785523,63.4262735 65.5898123,62.7345845 66.1447721,62.1152815 L69.0241287,63.9410188 C68.5846823,64.8334121 68.0959935,65.7007005 67.5603217,66.538874 C67.0408535,67.3746957 66.4742544,68.1802868 65.8632708,68.9517426 C64.58828,70.6751203 63.0234346,72.1637644 61.2386059,73.3512064 C60.1277542,74.084127 58.8658652,74.5569917 57.5469169,74.7345845 C55.9488681,74.9312906 54.3315463,74.5766148 52.9624665,73.7292225 C52.3486494,73.3372392 51.7842654,72.8727701 51.2815013,72.3458445 C50.8888873,71.9229244 50.5184188,71.479973 50.1715818,71.0187668 C49.526815,70.1754045 48.9409749,69.2885823 48.4182306,68.3646113 C46.5773446,64.8514956 45.1392698,61.1416403 44.1313673,57.30563 C43.616622,55.4477212 43.1340483,53.5898123 42.7479893,51.6756032 C42.3619303,49.7613941 42,47.9517426 41.7184987,45.9731903 L48.538874,44.9839142 Z" id="路径" fill="#E4897B"></path>
                        <path d="M46.3270777,37.4879357 C49.1099196,38.1957105 51.152815,49.6246649 51.152815,49.6246649 L40.4879357,56.9034853 C40.4879357,56.9034853 36.1206434,43.2949062 38.2359249,40.2466488 C40.4155496,37.0616622 42.2734584,36.458445 46.3270777,37.4879357 Z" id="路径" fill="#407BFF"></path>
                        <path d="M46.3270777,37.4879357 C49.1099196,38.1957105 51.152815,49.6246649 51.152815,49.6246649 L40.4879357,56.9034853 C40.4879357,56.9034853 36.1206434,43.2949062 38.2359249,40.2466488 C40.4155496,37.0616622 42.2734584,36.458445 46.3270777,37.4879357 Z" id="路径" fill="#000000" opacity="0.2"></path>
                        <path d="M68.6461126,64.463807 L72.2975871,59.2520107 L65.9517426,59.1152815 C65.9517426,59.1152815 64.4557641,62.1313673 65.4691689,64.7453083 L68.6461126,64.463807 Z" id="路径" fill="#E4897B"></path>
                        <path d="M72.8686327,56.5335121 L72.6756032,56.0268097 C72.5896293,55.8041777 72.4025786,55.635936 72.1721136,55.5739489 C71.9416487,55.5119617 71.6954386,55.5636713 71.5093834,55.7131367 L69.7158177,57.1447721 C69.1817078,57.5769479 68.4320699,57.6221847 67.849866,57.2573727 L67.849866,57.2573727 L67.2949062,56.6300268 C67.1848959,56.4969111 67.0212161,56.419839 66.8485255,56.419839 C66.6758348,56.419839 66.5121551,56.4969111 66.4021448,56.6300268 L66.2654155,56.7908847 C65.9744315,57.1449613 65.7903061,57.5745872 65.7345845,58.0294906 L65.4209115,60.6514745 L66.7560322,59.5978552 L72.30563,59.2359249 L72.8203753,58.1260054 C73.0522423,57.6237981 73.0696654,57.0488375 72.8686327,56.5335121 L72.8686327,56.5335121 Z" id="路径" fill="#E4897B"></path>
                        <path d="M22.8659517,10.9383378 C21.7640751,17.541555 21.1608579,20.308311 23.6702413,24.4262735 C27.4504021,30.6112601 35.7828418,30.5710456 38.8230563,24.4262735 C41.5656836,18.9168901 42.9008043,9.04825737 37.1420912,4.95442359 C34.5810651,3.10097729 31.2393976,2.71573708 28.323813,3.93781876 C25.4082283,5.15990044 23.3399836,7.81273205 22.8659517,10.9383378 Z" id="路径" fill="#E4897B"></path>
                        <path d="M40.5040214,48.0563003 C46.9383378,55.9544236 34.8739946,65.8391421 19.8418231,62.7024129 C-1.68096515,58.1983914 16.6246649,48.8605898 9.47453083,42.0884718 C2.32439678,35.3163539 8.60589812,31.1018767 12.9571046,26.075067 C17.308311,21.0482574 17.6380697,20.8954424 17.3163539,11.2600536 C16.9946381,1.62466488 27.8284182,-0.804289544 35.9436997,1.9463807 C41.847185,3.95710456 39.1608579,13.1099196 35.7265416,17.8150134 C32.2922252,22.5201072 41.6782842,25.3994638 41.0589812,31.8337802 C40.4396783,38.2680965 34.463807,40.6809651 40.5040214,48.0563003 Z" id="路径" fill="#263238"></path>
                        <path d="M30.7319035,0.932975871 C37.6327078,0.201072386 42.2412869,1.08579088 42.7962466,6.81233244 C43.3512064,12.538874 34.8659517,15.8847185 34.8659517,15.8847185 L30.7319035,0.932975871 Z" id="路径" fill="#263238"></path>
                        <path d="M33.6353887,16.6970509 C33.4846111,17.986018 33.8455992,19.2826872 34.6407507,20.308311 C35.7104558,21.6514745 37.2386059,20.9436997 37.7774799,19.4155496 C38.2680965,18.0402145 38.2922252,15.6756032 36.8203753,14.8793566 C36.1623475,14.540723 35.3777264,14.5577236 34.7349838,14.9245413 C34.0922412,15.291359 33.6785224,15.9582595 33.6353887,16.6970509 Z" id="路径" fill="#E4897B"></path>
                        <path d="M36.1447721,78.152815 C36.1447721,78.152815 34.6327078,92.0348525 32.6219839,108.836461 C31.3351206,119.557641 29.847185,131.469169 28.4155496,141.723861 C28.0616622,144.321716 27.6997319,146.806971 27.3538874,149.147453 C24.2171582,170.19571 12.1286863,220.729223 12.1286863,220.729223 L2.94369973,220.729223 C2.94369973,220.729223 8.07506702,171.91689 9.60321716,151.093834 C13.4718499,98.4209115 7.32707775,90.3941019 16.0375335,78.1849866 L36.1447721,78.152815 Z" id="路径" fill="#263238"></path>
                        <polygon id="路径" fill="#407BFF" points="13.6407507 220.849866 1.43163539 220.849866 1.64075067 216.506702 14.6461126 216.176944"></polygon>
                        <polygon id="路径" fill="#FFFFFF" opacity="0.8" points="13.6407507 220.849866 1.43163539 220.849866 1.64075067 216.506702 14.6461126 216.176944"></polygon>
                        <path d="M32.6219839,108.836461 C31.3351206,119.557641 29.847185,131.469169 28.4155496,141.723861 C26.2761394,130.83378 21.4504021,103.922252 29.0348525,99.1930295 C30.8605898,101.605898 31.9946381,104.975871 32.6219839,108.836461 Z" id="路径" fill="#000000" opacity="0.4"></path>
                        <path d="M43.3753351,78.1447721 C43.3753351,78.1447721 47.7265416,128.75067 47.3967828,149.292225 C47.075067,170.662198 41.6863271,220.697051 41.6863271,220.697051 L32.6058981,220.697051 C32.6058981,220.697051 31.6085791,171.908847 30.6675603,150.924933 C29.6380697,128.042895 23.3404826,78.1447721 23.3404826,78.1447721 L43.3753351,78.1447721 Z" id="路径" fill="#263238"></path>
                        <polygon id="路径" fill="#407BFF" points="43.0857909 220.849866 31.1018767 220.849866 30.8847185 216.506702 44.0911528 216.176944"></polygon>
                        <polygon id="路径" fill="#FFFFFF" opacity="0.8" points="43.0857909 220.849866 31.1018767 220.849866 30.8847185 216.506702 44.0911528 216.176944"></polygon>
                        <path d="M15.5951743,76.5442359 L14.3726542,78.9571046 C14.2841823,79.150134 14.5093834,79.3431635 14.8230563,79.3431635 L43.5201072,79.3431635 C43.7613941,79.3431635 43.9705094,79.2225201 43.9785523,79.0697051 L44.2117962,76.6568365 C44.2117962,76.4879357 44.0107239,76.3431635 43.7453083,76.3431635 L16.0375335,76.3431635 C15.8649131,76.3273341 15.6967518,76.403771 15.5951743,76.5442359 Z" id="路径" fill="#407BFF"></path>
                        <path d="M15.5951743,76.5442359 L14.3726542,78.9571046 C14.2841823,79.150134 14.5093834,79.3431635 14.8230563,79.3431635 L43.5201072,79.3431635 C43.7613941,79.3431635 43.9705094,79.2225201 43.9785523,79.0697051 L44.2117962,76.6568365 C44.2117962,76.4879357 44.0107239,76.3431635 43.7453083,76.3431635 L16.0375335,76.3431635 C15.8649131,76.3273341 15.6967518,76.403771 15.5951743,76.5442359 Z" id="路径" fill="#FFFFFF" opacity="0.5"></path>
                        <path d="M19.3029491,79.6246649 L18.5630027,79.6246649 C18.4101877,79.6246649 18.2975871,79.5522788 18.30563,79.4557641 L18.6353887,76.2386059 C18.6353887,76.150134 18.772118,76.0697051 18.924933,76.0697051 L19.6648794,76.0697051 C19.8096515,76.0697051 19.922252,76.150134 19.9142091,76.2386059 L19.5844504,79.4557641 C19.6085791,79.5683646 19.4798928,79.6246649 19.3029491,79.6246649 Z" id="路径" fill="#263238"></path>
                        <path d="M37.3190349,79.6246649 L36.5790885,79.6246649 C36.4343164,79.6246649 36.3217158,79.5522788 36.3297587,79.4557641 L36.6514745,76.2386059 C36.6514745,76.150134 36.7962466,76.0697051 36.9410188,76.0697051 L37.6809651,76.0697051 C37.8337802,76.0697051 37.9463807,76.150134 37.9383378,76.2386059 L37.6085791,79.4557641 C37.6005362,79.5683646 37.4718499,79.6246649 37.3190349,79.6246649 Z" id="路径" fill="#263238"></path>
                    </g>
                </g>
            </g>
        </g>
    </g>
</svg>